<svg xmlns="http://www.w3.org/2000/svg" viewBox="0 0 151.4 37"><path d="M1 1.5l.1 8.4.3 8.5.3 8.6v8.6l-.8-.9 9.3-.1h28l9.3.1 9.3.1 18.7.4c6.2.1 12.4.3 18.7.3 6.2.1 12.4.1 18.7.1l9.3-.1 9.3-.2 18.7-.5-.7.7-.3-17.1-.2-17.2 1.1 1.2-37.4.2H94l-18.4.1-18.7-.2c-6.2-.1-12.5-.1-18.7-.2L19.6 2C13.4 1.8 7.2 1.7 1 1.5zm-.1-.2C7.1 1.1 13.3 1 19.6.8L38.3.5C44.5.4 50.8.4 57 .3L75.7.1 94.3 0H113l37.4.2h1.2v1.2l-.2 17.1-.4 17.1v.7h-.7l-18.7.1-9.3.1H113c-6.2 0-12.5 0-18.7.1l-18.7.3-18.7.1H38.3l-18.7-.2-9.3-.1-9.3-.2H.1v-.9l.2-8.5v-8.5L.4 10c.1-2.9.2-5.7.4-8.6v-.1h.1z"/></svg>