<svg xmlns="http://www.w3.org/2000/svg" viewBox="0 0 1203 199.81"><defs><style>.cls-1{fill:#dadada}</style></defs><title>border-gray</title><g id="Layer_2" data-name="Layer 2"><path class="cls-1" d="M.47 196.31c1.9-.63 1.45-.82 1.48-.94.35-.39 1.26-.57 3-.57 1.69-.52 2-.62 2-.74 1.19.25 1.69.57 1.59 1 8.63.23 10.16.05 11.76-.33a1.37 1.37 0 0 1-1.44 1.15c-2 0-2.31.18-2.42.55a20.31 20.31 0 0 0 6.62-.73 7 7 0 0 1 .91.78 22.48 22.48 0 0 1 2.42-.57c7.79.49 7.38.61 6.63.6-1 .26-.21.77-.21.77l.22.57c-.68.19-.84.31-.9.56a22.63 22.63 0 0 0 2.47.59c5.56-.1 6.19-.54 6.19-.54.07-.25.43-.44 1.08-.56 3.6-.5 4.23-.55 4.5-.56.09-.31-3.23-.58-3.23-.58-3.65-.46-3.48-.68-3.17-.87 1.44-.45 1.77-.54 2.07-.66 3.95.53 3.59.66 3.55.78 5.07-.61 4.85-.75 4.35-.74.86-.38 1.31-.63 1.34-.76a23.1 23.1 0 0 1 5.15-.92c.67-.38.79-.55.7-.66-1.22.19-1.45.28-1.73.27-.29-.32-.12-.51.21-.77-4.7-.78-4.2-1-3.31-1.06 6.54-.25 6.69-.32 6.71-.45 4.29 0 6.47-.18 9.51-.23 13.26-.22 15.58-.47 15.73-1l3.6.58c1.72.16 1.43.34 1.36.59a7.15 7.15 0 0 0 2.1.58l-2.08.75c-5.42.54-6.36.73-6.61.73 1.3.84-.3 1.14-3.3 1.13a8.83 8.83 0 0 0 4 .59l.22.58a1.88 1.88 0 0 0-.91.56c6.65 0 9 .24 8.9.62s-.3.42-.7.48a18.41 18.41 0 0 0-3.52.46 11.32 11.32 0 0 0-1.25.47l-1.06.47c5.69-.17 7.6-.22 9.14-.34l2.4-.56c11.83-.29 14.56-.38 16.35-.49a84.13 84.13 0 0 0 10.15-.52c7.45-.41 8.49-.53 9-.53s.54.78.54.78c.74.51.57.7.51 1 .54-.63.76-1 1.1-1.33 1.25-.38 1.76-.44 2.05-.56l-.58.75c.57.2-6 2.65-6 2.65a1 1 0 0 0-.58.76l34.13-5.89v-4.14c7-.05 7.91.13 8.55.52 5.11-.91 5.81-1.27 6.54-1.27.24.49.05.69-.25.92a15.42 15.42 0 0 0 3.14.57c9.33-.26 10.2-.39 10.74-.51 2 .63 1.85.82 1.56.93a1.5 1.5 0 0 0-.5.56c2.8.44 2.41.56 1.67.56-1.95.43-1.73.54-1.23.55 6.19-.43 7.19-.52 8.16-.51l1.4-1.1c1.85-.61 1.67-.8 1.71-.91.33-.38 1.35-.55 3.07-.55 1.64-.51 2-.6 2-.72 1.15.25 1.68.56 1.58.93 8.34.23 9.86.05 11.41-.32a1.32 1.32 0 0 1-1.39 1.11c-1.95 0-2.23.17-2.34.54a19.74 19.74 0 0 0 6.42-.7 6.12 6.12 0 0 1 .89.75 18.76 18.76 0 0 1 2.33-.55c7.55.47 7.16.59 6.43.58-.93.25-.2.74-.2.74l.22.55c-.66.18-.82.3-.88.56a21.08 21.08 0 0 0 2.39.56c5.4-.09 6-.53 6-.53.06-.25.41-.43 1-.54 3.49-.48 4.1-.54 4.35-.55.08-.3-3.13-.56-3.13-.56-3.54-.45-3.37-.66-3.07-.85 1.39-.43 1.71-.52 2-.64 3.82.52 3.47.64 3.44.76 4.92-.59 4.7-.72 4.21-.72.84-.37 1.28-.62 1.31-.74a22.27 22.27 0 0 1 5-.89c.87-.49.78-.62.56-.74 3.13.2 25.34-.12 25.34-.12a1.73 1.73 0 0 0 .16.94c-3.26.76-2 1 0 1l.21.56a1.92 1.92 0 0 0-.88.55c6.45 0 8.72.24 8.61.59s-.28.41-.66.47c-3.81.56-4.22.72-4.62.9a63.83 63.83 0 0 0 10.16-.42c11.47-.29 14.11-.36 15.85-.47a83 83 0 0 0 9.83-.5l9.26 1.65-2.84 1a1 1 0 0 0-.55.75l6.63-1.13 3.88.69a1 1 0 0 0-.53-.72l9.14-2.11c8.09.32 10.63.42 14 .49s9.8.82 9.8.82c5.8.32 6.39.38 7.08.37 0-.62-.37-.76-.75-.89-2.45-.33-2.88-.38-3.26-.45-.73-.8 1.45-1 5.87-1 1.67-.29 1.41-.41.91-.53l-.13-.53c2.23 0 3.44-.17 4-.53-1.6 0 20.93-.42 20.93-.42a19.25 19.25 0 0 1 4 .85 11.41 11.41 0 0 1 2.33.89c-.38.35.34.42 1.53.54.93-.3.59-.41.56-.53 6.56.34 6.87.46 7.16.63a1.16 1.16 0 0 1 .52.63 16.57 16.57 0 0 0-4.77.51 9.92 9.92 0 0 0 2.46.72c.62.11.95.29 1 .53s.57.42 1.53.54a29.58 29.58 0 0 0 6.5-.52c-.06-.24-.84-.53-.84-.53l.22-.53-1.53-.53c.65-.18.27-.29.2-.54 5.43-.43 5.58-.52 5.8-.52 1.72.36 1.92.45 2.08.63 4 0 8.64.28 8.64.28-.1-.35-.36-.53-.84-.53-2.09 0-2.54-.36-2.72-1.07a18.61 18.61 0 0 0 4.33.55c6.51-.52 7-.81 8.11-1 1.54.33 1.87.48 1.92.71 1.65 0 2.62.19 2.94.55 0 .11-.13.28-.55.52-.23.47-.09.53.14.54l3.39.89c3.84.45 4.57.54 5 .54 3.15-.46 2.9-.51 2.65-.52-1.72-.35-1.32-.41-1-.53 1.48-.29 1.35-.4 1.09-.54a.73.73 0 0 1-.49-.53c10 .06 10.6 0 10.83 0 4.17-.58 4-.76 4-.88a1.93 1.93 0 0 1 2.29.72c9.38-.21 9.57-.33 10.05-.33a2.66 2.66 0 0 1 2.5 1.64l32.6 5.82a1 1 0 0 0-.55-.73l-6.34-2.22a7.14 7.14 0 0 1 .13-.91c2.23.73 2.43 1 2.49 1.29.39.12.94-.55.94-.55-.16-.61 0-.74.53-.74a82.7 82.7 0 0 1 8.62.58c3.72.19 7.53.57 7.53.57 3.89.13 6.5.23 10 .3s10.13.85 10.13.85c6 .32 6.59.38 7.31.38 0-.63-.37-.78-.78-.91-2.54-.34-3-.39-3.37-.46-.76-.82 1.49-1 6.06-1 1.73-.3 1.45-.42.93-.55l-.13-.55c2.3 0 3.55-.17 4.17-.54-2.88 0-4.4-.31-4.55-.93 1.15-.18.26-.36-1.28-.73-.25-.12-5.63-.93-5.63-.93.22 0 2-.54 2-.54-.05-.24-.33-.42-.85-.56 1.53-.17 5.62-.53 5.62-.53.13.49 2.35.75 6.69.75 3.52.13 5.46.23 8.36.3a42.07 42.07 0 0 1 6.25.48c7.33.2 8.42.23 9.27.29s1.34.28 1.44.65c-4.3.6-4.14.78-4.12.9-.78.18-1.09-.06-1.22-.56-5.33.3-4.42.54-2.74.54a4.21 4.21 0 0 1 2.66.56 13.1 13.1 0 0 1 3.8.74 11.62 11.62 0 0 1 2.41.92c-.4.36.35.43 1.58.55 1-.3.61-.42.58-.55 6.77.35 7.09.47 7.38.66a1.11 1.11 0 0 1 .52.64 17.19 17.19 0 0 0-4.91.53 10.28 10.28 0 0 0 2.7.8c.62.12 1 .3 1 .54s.59.44 1.59.56a30.84 30.84 0 0 0 6.71-.53c-.06-.24-.87-.55-.87-.55l.22-.55-1.58-.55c.67-.18.28-.3.21-.55 5.59-.45 5.75-.53 6-.54 1.78.37 2 .47 2.15.65 4.16 0 8.92.29 8.92.29-.11-.36-.38-.54-.87-.55-2.16 0-2.62-.37-2.8-1.1a19.12 19.12 0 0 0 4.46.56c6.72-.53 7.24-.83 8.38-1.07 1.59.34 1.93.49 2 .73 1.7 0 2.7.2 3 .57 0 .12-.14.3-.57.54-.24.48-.1.55.15.55l3.47.92c4 .46 4.72.56 5.19.55 3.24-.47 3-.53 2.74-.54-1.77-.36-1.36-.42-1-.54 1.52-.3 1.39-.42 1.12-.55a.77.77 0 0 1-.5-.55c10.34.07 10.94 0 11.18 0 4.3-.59 4.12-.78 4.09-.9a2 2 0 0 1 2.36.74c9.68-.21 9.87-.34 10.36-.33 8.59-.28 8.81-.34 9.28-.34a52.81 52.81 0 0 0 7.36.57c3.25.46 3.52.55 3.76.56a22.91 22.91 0 0 1 4.18-.55c11.63-.15 14 0 15.24.41l1.51 1.65c3.59.38 3.72.44 3.76.56 2.69-.24 2.93.19 3.12.92a20.42 20.42 0 0 0 4.56.93l1.25-.73c.84-.48 1.25-.79 1.22-.91l-.14-.55a7 7 0 0 0 2.7-.72 3.41 3.41 0 0 1 1.66-.55c5.65-.47 5.93-.72 6.66-.71 2.44-.3 2.15-.49 1.6-.73-.48 0-.85-.55-.85-.55 3 0 4.64-.17 5.26-.54-.24 0-.87-.55-.87-.55-2-.16-2.25-.31-2.31-.55a1 1 0 0 0 .13-.92 1.1 1.1 0 0 1 .13-.91 17.48 17.48 0 0 0 2.66-.9c0-.07 31.06 4.29 31.06 4.29a1 1 0 0 0-.53-.72l-6.15-2.14a7.31 7.31 0 0 1 .13-.89c2.16.72 2.36 1 2.42 1.25.37.11.91-.53.91-.53-.15-.6 0-.72.51-.72a79.59 79.59 0 0 1 8.34.56c3.61.19 7.3.55 7.3.55 3.76.13 6.31.22 9.7.3s9.8.82 9.8.82c5.8.32 6.39.38 7.08.37 0-.62-.37-.76-.75-.89-2.46-.33-2.88-.38-3.26-.45-.73-.8 1.45-1 5.87-1 1.67-.29 1.41-.41.91-.53l-.14-.53c2.23 0 3.44-.17 4-.53-1.6 0 20.94-.42 20.94-.42a19.27 19.27 0 0 1 4 .85 11.41 11.41 0 0 1 2.33.89c-.38.35.34.42 1.53.54.93-.3.59-.41.56-.53 6.56.34 6.87.46 7.16.63a1.14 1.14 0 0 1 .52.63 16.57 16.57 0 0 0-4.77.51 9.89 9.89 0 0 0 2.46.72c.62.11.95.29 1 .53s.57.42 1.54.54a29.52 29.52 0 0 0 6.5-.52c-.06-.24-.84-.53-.84-.53l.22-.53-1.53-.53c.64-.18.27-.29.21-.54 5.42-.43 5.57-.52 5.8-.52 1.72.36 1.92.45 2.08.63 4 0 8.64.28 8.64.28-.1-.35-.36-.53-.84-.53-2.09 0-2.54-.36-2.72-1.07a18.61 18.61 0 0 0 4.33.55c6.51-.52 7-.81 8.12-1 1.54.33 1.87.48 1.92.71 1.65 0 2.62.19 2.94.55 0 .11-.13.28-.55.52-.23.47-.09.53.14.54l3.39.89c3.84.45 4.57.54 5 .54 3.14-.46 2.9-.51 2.65-.52-1.72-.35-1.32-.41-1-.53 1.48-.29 1.35-.4 1.09-.54a.74.74 0 0 1-.49-.53c10 .06 10.6 0 10.83 0 4.17-.58 4-.76 4-.88a1.93 1.93 0 0 1 2.29.72c9.37-.21 9.57-.33 10-.33a2.66 2.66 0 0 1 2.5 1.64l32.6 5.82a1 1 0 0 0-.55-.73l-6.34-2.22a7.08 7.08 0 0 1 .13-.91c2.23.73 2.43 1 2.49 1.29.39.12.94-.55.94-.55-.16-.61 0-.74.53-.74a82.7 82.7 0 0 1 8.62.58c3.72.19 7.53.57 7.53.57 3.88.13 6.5.23 10 .3s10.12.85 10.12.85c6 .32 6.59.38 7.31.38 0-.63-.38-.78-.78-.91-2.54-.34-3-.39-3.37-.46-.75-.82 1.5-1 6.06-1 1.73-.3 1.45-.42.94-.55l-.13-.55c2.29 0 3.55-.17 4.17-.54-2.87 0-4.4-.31-4.55-.93 1.15-.18.26-.36-1.28-.73-.25-.12-5.62-.93-5.62-.93.22 0 2-.54 2-.54-.05-.24-.33-.42-.85-.56 1.53-.17 5.62-.53 5.62-.53.13.49 2.36.75 6.69.75 3.52.13 5.47.23 8.36.3a42.07 42.07 0 0 1 6.25.48c7.33.2 8.42.23 9.28.29s1.33.28 1.44.65c-4.3.6-4.14.78-4.11.9-.78.18-1.09-.06-1.22-.56-5.34.3-4.42.54-2.74.54a4.2 4.2 0 0 1 2.66.56 13.1 13.1 0 0 1 3.8.74 11.63 11.63 0 0 1 2.41.92c-.4.36.35.43 1.58.55 1-.3.61-.42.58-.55 6.77.35 7.09.47 7.38.66a1.13 1.13 0 0 1 .52.64 17.2 17.2 0 0 0-4.91.53 10.28 10.28 0 0 0 2.54.75c.62.12 1 .3 1 .54s.59.44 1.59.56a30.84 30.84 0 0 0 6.71-.53c-.06-.24-.87-.55-.87-.55l.22-.55-1.58-.55c.67-.18.29-.3.22-.55 5.59-.45 5.75-.53 6-.54 1.78.37 2 .47 2.15.65 4.16 0 8.92.29 8.92.29-.11-.36-.38-.54-.87-.55-2.15 0-2.62-.37-2.8-1.1a19.12 19.12 0 0 0 4.46.56c6.72-.53 7.24-.83 8.38-1.07 1.59.34 1.93.49 2 .73 1.7 0 2.7.2 3 .57 0 .12-.14.3-.57.54-.24.48-.1.55.15.55l3.47.92c4 .46 4.72.56 5.19.55 3.24-.47 3-.53 2.74-.54-1.77-.36-1.36-.42-1-.54 1.52-.3 1.39-.42 1.12-.55a.77.77 0 0 1-.51-.55c10.35.07 10.95 0 11.18 0 4.3-.59 4.12-.78 4.09-.9a2 2 0 0 1 2.36.74c9.68-.21 9.87-.34 10.36-.33 8.59-.28 8.81-.34 9.28-.34a52.85 52.85 0 0 0 7.36.57c3.25.46 3.52.55 3.75.56a23 23 0 0 1 4.18-.55c11.63-.15 14 0 15.24.41l1.51 1.65c3.58.38 3.72.44 3.75.56 2.69-.24 2.93.19 3.12.92a20.42 20.42 0 0 0 4.56.93l1.25-.73c.84-.48 1.25-.79 1.22-.91l-.14-.55a5.57 5.57 0 0 0 2.45-.72c.45-.26 0-.42 1-.5V2.69l-.53.8c-1.9.63-1.48.82-1.51.94-.35.39-1.28.57-3 .57-1.69.52-2 .62-2 .74-1.19-.25-1.69-.57-1.59-1-8.63-.23-10.17-.05-11.77.33A1.37 1.37 0 0 1 1184 4c2 0 2.31-.18 2.42-.55a20.31 20.31 0 0 0-6.62.73 7 7 0 0 1-.91-.78 22.48 22.48 0 0 1-2.42.57c-7.79-.49-7.38-.61-6.63-.6 1-.26.21-.77.21-.77l-.25-.6c.68-.19.84-.31.9-.56a22.6 22.6 0 0 0-2.47-.59c-5.56.1-6.19.54-6.19.54-.07.25-.43.44-1.08.56-3.6.5-4.23.55-4.5.56-.09.31 3.23.58 3.23.58 3.65.46 3.48.68 3.17.87-1.44.45-1.77.54-2.07.66-3.95-.53-3.59-.66-3.55-.78-5.07.61-4.85.75-4.35.74-.86.38-1.31.63-1.34.76a23.1 23.1 0 0 1-5.15.92c-.67.38-.79.55-.7.66 1.22-.19 1.45-.28 1.73-.27.29.32.12.51-.21.77 4.7.78 4.2 1 3.31 1.06-6.54.25-6.69.32-6.71.45-4.29 0-6.47.18-9.51.23-13.26.22-15.58.47-15.73 1l-3.6-.58c-1.72-.16-1.43-.34-1.36-.59a7.14 7.14 0 0 0-2.1-.58l2.08-.75c5.42-.54 6.36-.73 6.61-.73-1.3-.84.3-1.14 3.3-1.13a8.83 8.83 0 0 0-4-.59l-.22-.58a1.88 1.88 0 0 0 .91-.56c-6.65 0-9-.24-8.9-.62s.3-.42.7-.48a18.43 18.43 0 0 0 3.52-.46 11.33 11.33 0 0 0 1.25-.47l1.06-.47c-5.69.17-7.6.22-9.14.34l-2.4.56c-11.83.29-14.56.38-16.35.49a84.12 84.12 0 0 0-10.15.52c-7.45.41-8.49.53-9 .53s-.54-.78-.54-.78c-.74-.51-.57-.7-.51-1-.54.63-.76 1-1.1 1.33-1.25.38-1.76.44-2.05.56l.58-.75c-.57-.2 6-2.65 6-2.65a1 1 0 0 0 .58-.76l-34.09 5.81v4.14c-7 .05-7.91-.13-8.55-.52-5.11.91-5.81 1.27-6.54 1.27-.24-.49-.05-.69.25-.92a15.42 15.42 0 0 0-3.14-.57c-9.33.26-10.2.39-10.74.51-2-.63-1.85-.82-1.56-.93a1.5 1.5 0 0 0 .5-.56c-2.8-.44-2.41-.56-1.67-.56 1.95-.43 1.73-.54 1.23-.55-6.19.43-7.19.52-8.16.51l-1.4 1.1c-1.85.61-1.67.8-1.71.91-.33.38-1.35.55-3.07.55-1.64.51-2 .6-2 .72-1.15-.25-1.68-.56-1.58-.93-8.34-.23-9.86-.05-11.41.32a1.32 1.32 0 0 1 1.39-1.11c2 0 2.23-.17 2.34-.54a19.74 19.74 0 0 0-6.42.7 6.1 6.1 0 0 1-.89-.75 18.73 18.73 0 0 1-2.33.55c-7.55-.47-7.16-.59-6.43-.58.93-.25.2-.74.2-.74l-.22-.55c.66-.18.82-.3.88-.56a21.08 21.08 0 0 0-2.39-.56c-5.4.09-6 .53-6 .53-.06.25-.41.43-1 .54-3.49.48-4.1.54-4.35.55-.08.3 3.13.56 3.13.56 3.54.45 3.37.66 3.07.85-1.39.43-1.71.52-2 .64-3.82-.52-3.47-.64-3.44-.76-4.92.59-4.7.72-4.21.72-.84.37-1.28.62-1.31.74a22.26 22.26 0 0 1-5 .89c-.87.49-.78.62-.56.74-3.13-.2-25.34.12-25.34.12a1.73 1.73 0 0 0-.16-.94c3.26-.76 2-1 0-1l-.21-.56a1.92 1.92 0 0 0 .88-.55c-6.45 0-8.72-.24-8.61-.59s.28-.41.66-.47c3.81-.56 4.22-.72 4.62-.9a63.83 63.83 0 0 0-10.16.42c-11.47.29-14.11.36-15.85.47a83 83 0 0 0-9.83.5l-9.26-1.65 2.84-1a1 1 0 0 0 .55-.75L868 6.48l-3.88-.69a1 1 0 0 0 .53.72l-9.14 2.11c-8.09-.32-10.63-.42-14-.49s-9.8-.82-9.8-.82c-5.8-.32-6.39-.38-7.08-.37 0 .62.37.76.75.89 2.45.33 2.88.38 3.26.45.73.8-1.45 1-5.87 1-1.67.29-1.41.41-.91.53l.13.53c-2.23 0-3.44.17-4 .53 1.6 0-20.93.42-20.93.42a19.24 19.24 0 0 1-4-.85 11.41 11.41 0 0 1-2.33-.89c.38-.35-.34-.42-1.53-.54-.93.3-.59.41-.56.53-6.56-.34-6.87-.46-7.16-.63a1.16 1.16 0 0 1-.52-.63 16.57 16.57 0 0 0 4.77-.51 9.92 9.92 0 0 0-2.52-.77c-.62-.11-.95-.29-1-.53s-.57-.42-1.53-.54a29.58 29.58 0 0 0-6.5.52c.06.24.84.53.84.53l-.22.53 1.53.53c-.65.18-.27.29-.2.54-5.43.43-5.58.52-5.8.52-1.72-.36-1.92-.45-2.08-.63-4 0-8.64-.28-8.64-.28.1.35.36.53.84.53 2.09 0 2.54.36 2.72 1.07a18.61 18.61 0 0 0-4.33-.55c-6.51.52-7 .81-8.11 1-1.54-.33-1.87-.48-1.92-.71-1.65 0-2.62-.19-2.94-.55 0-.11.13-.28.55-.52.23-.47.09-.53-.14-.54L742.87 7c-3.84-.45-4.57-.54-5-.54C734.7 7 735 7 735.2 7c1.72.35 1.32.41 1 .53-1.48.29-1.35.4-1.09.54a.73.73 0 0 1 .49.53c-10-.06-10.6 0-10.83 0-4.17.58-4 .76-4 .88a1.93 1.93 0 0 1-2.29-.72c-9.38.21-9.57.33-10.05.33A2.66 2.66 0 0 1 706 7.43l-32.6-5.82a1 1 0 0 0 .55.73l6.34 2.22a7.14 7.14 0 0 1-.13.91c-2.23-.73-2.43-1-2.49-1.29-.39-.12-.94.55-.94.55.16.61 0 .74-.53.74a82.7 82.7 0 0 1-8.62-.58c-3.72-.19-7.53-.57-7.53-.57-3.89-.13-6.5-.23-10-.3s-10.13-.85-10.13-.85c-6-.32-6.59-.38-7.31-.38 0 .63.37.78.78.91 2.54.34 3 .39 3.37.46.76.82-1.49 1-6.06 1-1.73.3-1.45.42-.93.55l.13.55c-2.3 0-3.55.17-4.17.54 2.88 0 4.4.31 4.55.93-1.15.18-.26.36 1.28.73.25.12 5.63.93 5.63.93-.22 0-2 .54-2 .54.05.24.33.42.85.56-1.53.17-5.62.53-5.62.53-.13-.49-2.35-.75-6.69-.75-3.52-.13-5.46-.23-8.36-.3a42.07 42.07 0 0 1-6.25-.48c-7.33-.2-8.42-.23-9.27-.29s-1.34-.28-1.44-.65c4.3-.6 4.14-.78 4.12-.9.78-.18 1.09.06 1.22.56 5.33-.3 4.42-.54 2.74-.54a4.21 4.21 0 0 1-2.66-.56 13.1 13.1 0 0 1-3.8-.74 11.62 11.62 0 0 1-2.41-.92c.4-.36-.35-.43-1.58-.55-1 .3-.61.42-.58.55-6.77-.35-7.09-.47-7.38-.66a1.11 1.11 0 0 1-.52-.64 17.19 17.19 0 0 0 4.91-.53 10.28 10.28 0 0 0-2.54-.75c-.62-.12-1-.3-1-.54s-.59-.44-1.59-.56a30.84 30.84 0 0 0-6.71.53c.06.24.87.55.87.55l-.22.55 1.58.55c-.67.18-.28.3-.21.55-5.59.45-5.75.53-6 .54-1.78-.37-2-.47-2.15-.65-4.16 0-8.92-.29-8.92-.29.11.36.38.54.87.55 2.16 0 2.62.37 2.8 1.1a19.12 19.12 0 0 0-4.46-.56c-6.72.53-7.24.83-8.38 1.07-1.59-.34-1.93-.49-2-.73-1.7 0-2.7-.2-3-.57 0-.12.14-.3.57-.54.24-.48.1-.55-.15-.55l-3.47-.92c-4-.46-4.72-.56-5.19-.55-3.24.47-3 .53-2.74.54 1.77.36 1.36.42 1 .54-1.52.3-1.39.42-1.12.55a.77.77 0 0 1 .5.55c-10.34-.07-10.94 0-11.18 0-4.3.59-4.12.78-4.09.9a2 2 0 0 1-2.36-.74c-9.68.21-9.87.34-10.36.33-8.59.28-8.81.34-9.28.34a52.81 52.81 0 0 0-7.36-.57c-3.25-.46-3.52-.55-3.76-.56a22.91 22.91 0 0 1-4.18.55c-11.63.15-14 0-15.24-.41l-1.6-1.74c-3.59-.38-3.72-.44-3.76-.56-2.69.24-2.93-.19-3.12-.92A20.42 20.42 0 0 0 460 .27l-1.29.73c-.84.48-1.25.79-1.22.91l.14.55a7 7 0 0 0-2.7.72 3.41 3.41 0 0 1-1.66.55c-5.65.47-5.93.72-6.66.71-2.44.3-2.15.49-1.6.73.48 0 .85.55.85.55-3 0-4.64.17-5.26.54.24 0 .87.55.87.55 2 .16 2.25.31 2.31.55a1 1 0 0 0-.13.92 1.1 1.1 0 0 1-.13.91 17.48 17.48 0 0 0-2.66.9c0 .07-31.06-4.29-31.06-4.29a1 1 0 0 0 .53.72l6.15 2.14a7.31 7.31 0 0 1-.13.89c-2.16-.72-2.36-1-2.42-1.25-.37-.11-.91.53-.91.53.15.6 0 .72-.51.72a79.59 79.59 0 0 1-8.35-.55c-3.61-.19-7.3-.55-7.3-.55-3.76-.13-6.31-.22-9.7-.3s-9.8-.82-9.8-.82c-5.8-.32-6.39-.38-7.08-.37 0 .62.37.76.75.89 2.46.33 2.88.38 3.26.45.73.8-1.45 1-5.87 1-1.67.29-1.41.41-.91.53l.14.53c-2.23 0-3.44.17-4 .53 1.6 0-20.94.42-20.94.42a19.27 19.27 0 0 1-4-.85 11.41 11.41 0 0 1-2.33-.89c.38-.35-.34-.42-1.53-.54-.93.3-.59.41-.56.53-6.56-.34-6.87-.46-7.16-.63a1.14 1.14 0 0 1-.52-.63 16.57 16.57 0 0 0 4.77-.51 9.89 9.89 0 0 0-2.49-.79c-.62-.11-.95-.29-1-.53s-.57-.42-1.54-.54a29.52 29.52 0 0 0-6.5.52c.06.24.84.53.84.53l-.22.53L322 8c-.64.18-.27.29-.21.54-5.42.43-5.57.52-5.8.52-1.72-.36-1.92-.45-2.08-.63-4 0-8.64-.28-8.64-.28.1.35.36.53.84.53 2.09 0 2.54.36 2.72 1.07a18.61 18.61 0 0 0-4.33-.55c-6.51.52-7 .81-8.12 1-1.54-.33-1.87-.48-1.92-.71-1.65 0-2.62-.19-2.94-.55 0-.11.13-.28.55-.52.23-.47.09-.53-.14-.54L288.55 7c-3.84-.45-4.57-.54-5-.54-3.14.46-2.9.51-2.65.52 1.72.35 1.32.41 1 .53-1.48.29-1.35.4-1.09.54a.74.74 0 0 1 .49.53c-10-.06-10.6 0-10.83 0-4.17.58-4 .76-4 .88a1.93 1.93 0 0 1-2.29-.72c-9.37.21-9.57.33-10 .33a2.66 2.66 0 0 1-2.5-1.64L219 1.61a1 1 0 0 0 .55.73l6.34 2.22a7.08 7.08 0 0 1-.13.91c-2.23-.73-2.43-1-2.49-1.29-.39-.12-.94.55-.94.55.16.61 0 .74-.53.74a82.7 82.7 0 0 1-8.62-.58c-3.72-.19-7.53-.57-7.53-.57-3.88-.13-6.5-.23-10-.3s-10.12-.85-10.12-.85c-6-.32-6.59-.38-7.31-.38 0 .63.38.78.78.91 2.54.34 3 .39 3.37.46.75.82-1.5 1-6.06 1-1.73.3-1.45.42-.94.55l.13.55c-2.29 0-3.55.17-4.17.54 2.87 0 4.4.31 4.55.93-1.15.18-.26.36 1.28.73.25.12 5.62.93 5.62.93-.22 0-2 .54-2 .54.05.24.33.42.85.56-1.53.17-5.62.53-5.62.53-.13-.49-2.36-.75-6.69-.75-3.52-.13-5.47-.23-8.36-.3a42.07 42.07 0 0 1-6.25-.48c-7.33-.2-8.42-.23-9.28-.29s-1.33-.28-1.44-.65c4.3-.6 4.14-.78 4.11-.9.78-.18 1.09.06 1.22.56 5.34-.3 4.42-.54 2.74-.54a4.2 4.2 0 0 1-2.66-.56 13.1 13.1 0 0 1-3.8-.74 11.63 11.63 0 0 1-2.41-.92c.4-.36-.35-.43-1.58-.55-1 .3-.61.42-.58.55-6.77-.35-7.09-.47-7.38-.66a1.13 1.13 0 0 1-.52-.64 17.2 17.2 0 0 0 4.91-.53 10.28 10.28 0 0 0-2.54-.75c-.62-.12-1-.3-1-.54s-.59-.44-1.59-.56a30.84 30.84 0 0 0-6.71.53c.06.24.87.55.87.55l-.22.55 1.58.55c-.67.18-.29.3-.22.55-5.59.45-5.75.53-6 .54-1.78-.37-2-.47-2.15-.65-4.16 0-8.92-.29-8.92-.29.11.36.38.54.87.55 2.15 0 2.62.37 2.8 1.1a19.12 19.12 0 0 0-4.46-.56c-6.72.53-7.24.83-8.38 1.07-1.59-.34-1.93-.49-2-.73-1.7 0-2.7-.2-3-.57 0-.12.14-.3.57-.54.24-.48.1-.55-.15-.55l-3.47-.97c-4-.46-4.72-.56-5.19-.55-3.24.47-3 .53-2.74.54 1.77.36 1.36.42 1 .54-1.52.3-1.39.42-1.12.55a.77.77 0 0 1 .51.55c-10.35-.07-10.95 0-11.18 0-4.3.59-4.12.78-4.09.9a2 2 0 0 1-2.36-.74c-9.65.18-9.84.31-10.33.31-8.59.28-8.81.34-9.28.34a52.85 52.85 0 0 0-7.36-.57c-3.25-.46-3.52-.55-3.75-.56a23 23 0 0 1-4.18.55c-11.63.15-14 0-15.24-.41l-1.53-1.67c-3.58-.38-3.72-.44-3.75-.56-2.69.24-2.93-.19-3.12-.92A20.42 20.42 0 0 0 5.64.27L4.39 1c-.84.48-1.25.79-1.22.91l.14.55a5.24 5.24 0 0 0-2.39.72 6.73 6.73 0 0 0-.93.5v193.44z" id="Layer_1-2" data-name="Layer 1"/></g></svg>