<svg xmlns="http://www.w3.org/2000/svg" viewBox="0 0 149.66 38.9"><defs><style>.cls-1{fill:#fff}</style></defs><title>border-btn</title><g id="Layer_2" data-name="Layer 2"><path class="cls-1" d="M1 1.52l.14 8.9.33 9 .26 9v9.06l-.82-.88c6.15-.08 12.3 0 18.45-.06h18.45c6.15 0 12.3.08 18.45.19l18.45.39q9.22.22 18.45.34c6.15.08 12.3.1 18.45.12l9.22-.06 9.22-.2 18.43-.54-.68.69-.27-18-.18-18.1 1.16 1.19-36.9.21H93.15L74.7 2.68l-18.45-.19C50.1 2.42 44 2.39 37.8 2.27L19.35 2zm-.22-.26L19.35.81 37.8.49C44 .37 50.1.35 56.25.27L74.7.09 93.15 0h18.45l36.9.21h1.17v1.21l-.18 18-.27 18.09v.68h-.67l-18.46.08-9.23.11h-9.23c-6.15 0-12.3 0-18.45.12l-18.45.25-18.45.17H37.83l-18.45-.22C13.2 38.56 7 38.52.9 38.36H0v-.89l.25-9v-9l.1-9c.1-3 .23-6 .36-9z" id="Layer_1-2" data-name="Layer 1"/></g></svg>