<svg xmlns="http://www.w3.org/2000/svg" viewBox="0 0 89.39 88.63"><defs><style>.cls-1{fill:#1d1d1b}</style></defs><title>Asset 25</title><g id="Layer_2" data-name="Layer 2"><path class="cls-1" d="M88.65 1.4c-3.68.17-7.36.29-11 .4s-7.36.24-11 .32l-5.52.13c-1.84 0-3.65.07-5.5.14s-3.62.2-5.45.35-3.64.31-5.46.51c-3.64.38-7.28.86-10.93 1.3s-7.32.88-11 1.23c-1.84.17-3.69.34-5.55.43s-3.71.18-5.58.2H9.4l-.26-.07L9 6.27 8.32 6c-.88-.38-1.71-.76-2.55-1.15l-5-2.37L2.51.55a1.66 1.66 0 0 1 .18.51V6.67l-.1 5.45L2.34 23l-.26 10.91-.17 10.89c0 3.63-.08 7.26-.06 10.89v10.89c0 3.63.07 7.26.13 10.89l.1 5.44.06 2.72L2.2 87v.45c.42.1-1.46-1.29-.89-.74h.76a76.48 76.48 0 0 0 10.64-1.61c3.54-.7 7.1-1.53 10.77-2 1.83-.27 3.69-.45 5.57-.55h2.77l2.72-.06L45.39 82c3.63-.13 7.28-.11 10.94-.09s7.32.26 11 .55A103.12 103.12 0 0 1 78.22 84a93.34 93.34 0 0 1 10.64 2.9l-.93.7c-.1-14.4 0-28.79.07-43.19l.19-21.59.14-10.82.07-5.4V1.4a.42.42 0 0 1 .17-.33zm0 0c.07.09.2 0 .16 0v21.39l.07 21.59c.08 14.39.18 28.78.45 43.17v.93l-.94-.23a96.29 96.29 0 0 0-10.6-2c-3.57-.41-7.13-.78-10.73-.9s-7.19-.11-10.79-.09-7.22.18-10.84.25-7.26.19-10.92.18h-5.36c-1.75 0-3.52.15-5.28.37-3.53.42-7.1 1-10.71 1.56a64.77 64.77 0 0 1-11 .84h-.79c.53.56-1.35-.85-.93-.79v-4.73l.1-5.45.19-10.9.1-10.89V44.81l-.07-10.9L.55 23 .32 12.13.19 6.68.11 4V2.65L0 2v-.5a1.34 1.34 0 0 0 .16.42L1.91 0l5 2.24c.84.36 1.68.73 2.5 1.06l.57.22h.05-.1 1.59c1.81 0 3.63-.11 5.45-.22s3.64-.24 5.46-.39c3.64-.3 7.29-.7 10.94-1.1S40.73 1 44.42.69A148.265 148.265 0 0 1 55.53.16c1.86-.02 3.7 0 5.53.06l5.52.13c3.68.07 7.36.2 11 .32s7.36.23 11 .4z" id="Layer_1-2" data-name="Layer 1"/></g></svg>