<svg xmlns="http://www.w3.org/2000/svg" viewBox="0 0 874.2 88.63"><defs><style>.cls-1{fill:#1d1d1b}</style></defs><title>Asset 24</title><g id="Layer_2" data-name="Layer 2"><path class="cls-1" d="M.83 1.19l109-.66 109-.41L273.32 0h27.25l27.26.08 54.5.18 27.25.16c9.08 0 18.17.11 27.25.23l54.5.66 54.5.79 109 1.59 13.62.18L682 4l27.25.17 54.5.35 13.62.06H787.59c1.11 0 2.26-.07 3.39-.1q13.66-.48 27.26-1.19L872.68.73l.13 1.27c.25-.08.15-.1.13 0a2.2 2.2 0 0 0-.12.33 7.51 7.51 0 0 0-.18.84c-.1.59-.16 1.2-.21 1.81-.1 1.22-.15 2.46-.19 3.7-.07 2.48-.07 5 0 7.46 0 5 .19 10 .35 15L873.67 61c.19 5 .37 10 .47 15 0 2.5.09 5 0 7.53 0 .63 0 1.26-.07 1.9a13 13 0 0 1-.24 2 1.92 1.92 0 0 1-.36.8 1.25 1.25 0 0 1-.91.38h-33c-20-.1-40-.21-59.93-.49l-59.91-.88-59.9-.87-30-.31c-10-.12-20-.14-29.95-.16l-119.83-.1-119.83-.33H240.47c-20 0-39.94.16-59.91.29l-30 .2-30 .37-30 .36-15 .18-15 .3L.85 88.43H0l.12-.83c1-7.1 1.48-14.29 1.79-21.47s.39-14.39.36-21.59-.19-14.4-.45-21.6q-.19-5.4-.46-10.8l-.3-5.4-.17-2.68-.1-1.34L.74 2V1.43c0-.07 0 .08.15.11zm0 0c.18 0 .18.2.17.15v.67l.06.67L1.25 4l.21 2.7.37 5.4q.34 5.4.6 10.8.52 10.8.72 21.62c.12 7.21.13 14.43-.08 21.64s-.61 14.46-1.53 21.65L.81 87l59.9-1.74 15-.42 15-.3 30-.6 30-.54 30-.35c20-.22 39.95-.5 59.92-.58l59.92-.33h59.92l119.83.21 119.7.34c10 0 20 .1 30 .25l30 .39 30 .51 30 .61 59.9 1.18q30 .6 59.9.93l30 .23h3c.36 0-.32 0-.48.26s0 0 0-.06a23.33 23.33 0 0 0 .29-3.54c.07-2.47 0-5 0-7.45-.07-5-.22-10-.37-15l-.94-29.95c-.13-5-.23-10-.25-15 0-2.5 0-5 .09-7.51 0-1.25.1-2.51.21-3.77.06-.63.13-1.27.24-1.91a8.64 8.64 0 0 1 .22-1 3.28 3.28 0 0 1 .21-.54 1.13 1.13 0 0 1 .77-.65L872.73 2l-54.45 2.4Q804.66 5 791 5.52c-1.14 0-2.26.12-3.42.1H777.36l-13.62-.07-54.5-.18c-18.17-.08-36.33-.07-54.5-.22l-109-.72L491.3 4l-54.49-.5c-9.08-.1-18.16-.15-27.25-.17l-27.25-.1-54.5-.35-27.24-.16h-27.25l-54.5-.08-109-.41L.83 1.52z" id="Layer_1-2" data-name="Layer 1"/></g></svg>