<svg id="Layer_1" xmlns="http://www.w3.org/2000/svg" viewBox="0 0 1215.9 161.5"><style>.st0{fill:#1d1d1b}</style><title>scr-border</title><g id="Layer_2"><g id="Layer_1-2"><g id="Layer_2-2"><g id="Layer_1-2-2"><path class="st0" d="M1217.2 3.6c-1.9.6-.8.8-.8.9-.4.4-.9.6-2.7.6-1.7.5-1.8.6-1.9.8-1.2-.3-1.6-.6-1.5-1-8.7-.2-10.2-.1-11.9.3.2-.7.8-1.1 1.5-1.1 2 0 2.3-.2 2.5-.6-2.3-.1-4.5.1-6.7.7-.3-.2-.6-.5-.9-.8l-2.4.6c-7.9-.5-7.5-.6-6.7-.6 1-.3.2-.8.2-.8l-.2-.6c.7-.2.9-.3.9-.6-.8-.3-1.7-.5-2.5-.6-5.6.1-6.3.6-6.3.6-.1.3-.4.4-1.1.6-3.6.5-4.3.6-4.6.6-.1.3 3.3.6 3.3.6 3.7.5 3.5.7 3.2.9-1.5.4-1.8.6-2.1.7-4-.5-3.6-.7-3.6-.8-5.1.6-4.9.8-4.4.8-.9.4-1.3.6-1.4.8-1.7.5-3.4.8-5.2.9-.7.4-.8.6-.7.7l1.8-.3c.3.3.1.5-.2.8 4.8.8 4.2 1 3.3 1.1-6.6.3-6.8.3-6.8.4-4.3 0-6.5.2-9.6.2-13.4.2-15.8.5-15.9 1l-3.6-.6c-1.7-.2-1.4-.3-1.4-.6-.7-.3-1.4-.5-2.1-.6l2.1-.8c5.5-.5 6.5-.8 6.7-.8-1.3-.8.3-1.2 3.3-1.1-1.3-.5-2.6-.7-4-.6l-.2-.6c.4-.1.7-.3.9-.6-6.7 0-9.1-.2-9-.6.1-.4.3-.4.7-.5 1.2 0 2.4-.2 3.6-.5.4-.1.9-.3 1.3-.5l1.1-.5c-5.8.2-7.7.2-9.2.3l-2.4.6c-12 .3-14.7.4-16.5.5-3.4 0-6.9.1-10.3.5-7.5.4-8.6.5-9.1.5s-.6-.8-.6-.8c-.8-.5-.6-.7-.5-1-.6.6-.8 1-1.1 1.3-1.3.4-1.8.4-2.1.6l.6-.8c-.6-.2 6.1-2.7 6.1-2.7.3-.1.5-.4.6-.8L1054 5.8V10c-7.1.1-8-.1-8.6-.5-5.2.9-5.9 1.3-6.6 1.3-.2-.5-.1-.7.3-.9-1-.3-2.1-.5-3.2-.6-9.4.3-10.3.4-10.9.5-2-.6-1.9-.8-1.6-.9.2-.1.4-.3.5-.6-2.8-.4-2.4-.6-1.7-.6 2-.4 1.8-.6 1.2-.6-6.3.4-7.3.5-8.2.5l-1.4 1.1c-1.9.6-1.7.8-1.7.9-.3.4-1.4.6-3.1.6-1.7.5-2 .6-2 .7-1.2-.3-1.7-.6-1.6-.9-8.4-.2-10-.1-11.5.3.1-.7.7-1.2 1.4-1.1 2 0 2.3-.2 2.4-.6-2.2-.1-4.4.1-6.5.7-.3-.2-.6-.5-.9-.8l-2.4.6c-7.6-.5-7.2-.6-6.5-.6.9-.3.2-.8.2-.8l-.2-.6c.7-.2.8-.3.9-.6l-2.4-.6c-5.5.1-6.1.5-6.1.5-.1.3-.4.4-1 .6-3.5.5-4.1.6-4.4.6-.1.3 3.2.6 3.2.6 3.6.4 3.4.7 3.1.9-1.4.4-1.7.5-2 .6-3.9-.5-3.5-.6-3.5-.8-5 .6-4.8.7-4.3.7-.9.4-1.3.6-1.3.8-1.6.5-3.3.8-5.1.9-.9.5-.8.6-.6.8-3.2-.2-25.6.1-25.6.1 0-.3 0-.7-.2-.9 3.3-.8 2-1 0-1l-.2-.6c.3-.1.7-.3.9-.6-6.5 0-8.8-.2-8.7-.6s.3-.4.7-.5c3.9-.6 4.3-.7 4.7-.9-3.4-.1-6.9 0-10.3.4-11.6.3-14.3.4-16 .5-3.3 0-6.6.1-9.9.5l-9.4-1.6 2.9-1c.3-.1.5-.4.6-.8l-6.7 1.1-3.9-.7c.1.3.3.6.5.7l-9.4 2.2c-8.2-.3-10.8-.4-14.2-.5-3.4-.1-9.9-.8-9.9-.8-5.9-.1-6.6-.1-7.3-.1 0 .6.4.8.8.9 2.5.3 2.9.4 3.3.5.7.8-1.5 1-5.9 1-1.7.3-1.4.4-.9.5l.1.5c-2.3 0-3.5.2-4 .5 1.6 0-21.2.4-21.2.4-1.4-.1-2.7-.4-4-.9-.8-.2-1.6-.5-2.4-.9.4-.4-.3-.4-1.6-.6-.9.3-.6.4-.6.5-6.6-.3-6.9-.5-7.2-.6-.2-.1-.4-.4-.5-.6 1.6.1 3.3-.1 4.8-.5-.8-.4-1.6-.6-2.5-.7-.6-.1-1-.3-1-.5s-.6-.4-1.6-.6c-2.2-.1-4.4.1-6.6.5.1.2.9.5.9.5l-.2.5 1.6.5c-.7.2-.3.3-.2.6-5.5.4-5.6.5-5.9.5-1.7-.4-1.9-.4-2.1-.6-4 0-8.7-.3-8.7-.3.1.4.4.5.9.5 2.1 0 2.6.4 2.8 1.1-1.4-.4-2.9-.5-4.4-.6-2.8.1-5.5.4-8.2 1-1.6-.3-1.9-.5-1.9-.7-1.7 0-2.7-.2-3-.6 0-.1.1-.3.6-.5.2-.5.1-.5-.1-.6l-3.6-.6c-3.9-.4-4.6-.6-5.1-.6-3.2.6-3 .6-2.7.6 1.7.3 1.3.4 1 .5-1.5.3-1.4.4-1.1.5.2.1.4.3.5.5-10.1-.1-10.7 0-11 0-4.2.6-4 .8-4 .9-.8.3-1.8 0-2.3-.7-9.5.2-9.7.3-10.2.3-1.1 0-2.1-.6-2.5-1.7l-33.1-5.8c.1.3.3.6.6.7l6.4 2.2c0 .3-.1.6-.1.9-2.3-.7-2.5-1-2.5-1.3-.4-.1-1 .6-1 .6.2.6 0 .8-.5.8-2.9 0-5.8-.2-8.7-.6-3.8-.2-7.6-.6-7.6-.6-3.9-.1-6.6-.2-10.1-.3s-10.2-.9-10.2-.9c-6.1-.3-6.7-.4-7.4-.4 0 .6.4.8.8.9 2.6.3 3 .4 3.4.5.8.8-1.5 1-6.1 1-1.8.3-1.5.4-.9.6l.1.6c-2.3 0-3.6.2-4.2.6 2.9 0 4.4.3 4.6.9-1.2.2-.3.4 1.3.7.3.1 5.7.9 5.7.9-.2 0-2 .6-2 .6.1.2.3.4.9.6-1.6.2-5.7.5-5.7.5-.1-.5-2.4-.8-6.8-.8-3.6-.1-5.5-.2-8.4-.3-2.1 0-4.2-.2-6.3-.5-7.4-.2-8.5-.2-9.4-.3s-1.4-.3-1.5-.7c4.3-.6 4.2-.8 4.2-.9.8-.2 1.1.1 1.2.6 5.4-.3 4.5-.6 2.8-.6-.9.1-1.9-.1-2.7-.6-1.3-.1-2.6-.3-3.8-.8-.8-.2-1.7-.5-2.4-.9.4-.4-.4-.4-1.6-.6-1 .3-.6.4-.6.6-6.8-.3-7.2-.5-7.5-.7-.3-.1-.4-.4-.5-.7 1.7.1 3.4-.1 5-.5-.8-.4-1.7-.6-2.6-.8-.6-.1-1-.3-1-.5s-.7-.5-1.7-.6c-2.3-.1-4.6.1-6.8.5.1.2.9.6.9.6l-.2.6 1.6.6c-.7.2-.3.3-.2.6-5.7.4-5.8.5-6.1.6-1.8-.4-2-.5-2.2-.7-4.2 0-9-.3-9-.3.1.4.4.6.9.6 2.2 0 2.7.4 2.8 1.1-1.5-.4-3-.6-4.5-.6-6.8.5-7.3.8-8.5 1.1-1.6-.3-2-.5-2-.7-1.7 0-2.7-.2-3-.6 0-.1.1-.3.6-.6.2-.5.1-.6-.2-.6l-3.7-.7c-4-.5-4.8-.6-5.2-.6-3.3.5-3 .5-2.8.5 1.8.4 1.4.4 1 .5-1.5.3-1.4.4-1.1.6.3.1.4.3.5.6-10.5-.1-11 0-11.3 0-4.3.6-4.2.8-4.1.9-.9.3-1.9 0-2.4-.8-9.8.2-10 .3-10.5.3-8.7.3-8.9.3-9.4.3-2.5-.4-4.9-.6-7.4-.6-3.3-.5-3.6-.6-3.8-.6-1.4.3-2.8.5-4.2.6-11.8.2-14.2 0-15.4-.4l-1.5-1.7c-3.6-.4-3.8-.4-3.8-.6-2.7.2-3-.2-3.2-.9-1.5-.5-3-.8-4.6-.9l-1.2.7c-.9.5-1.3.8-1.2.9l.1.6c-1 .1-1.9.3-2.7.7-.5.3-1.1.5-1.7.6-5.7.5-6 .7-6.7.7-2.5.3-2.2.5-1.6.7.5 0 .9.6.9.6-3 0-4.7.2-5.3.6.2 0 .9.6.9.6 2 .2 2.3.3 2.3.6-.2.3-.2.6-.1.9.1.3 0 .6-.1.9-.9.2-1.8.5-2.7.9 0 .1-31.4-4.3-31.4-4.3.1.3.3.6.5.7l6.2 2.2c0 .3-.1.6-.1.9-2.2-.7-2.4-1-2.4-1.3-.4-.1-.9.5-.9.5.2.6 0 .7-.5.7-2.8-.1-5.6-.3-8.4-.6-3.7-.2-7.4-.6-7.4-.6-3.8-.1-6.4-.2-9.8-.3s-9.9-.8-9.9-.8c-5.9-.3-6.5-.4-7.2-.4 0 .6.4.8.8.9 2.5.3 2.9.4 3.3.5.7.8-1.5 1-5.9 1-1.7.3-1.4.4-.9.5l.1.5c-2.3 0-3.5.2-4 .5 1.6 0-21.2.4-21.2.4-1.4-.1-2.7-.4-4-.9-.8-.2-1.6-.5-2.4-.9.4-.4-.3-.4-1.6-.6-.9.3-.6.4-.6.5-6.6-.3-6.9-.5-7.2-.6-.3-.1-.4-.4-.5-.6 1.6.1 3.3-.1 4.8-.5-.8-.4-1.6-.6-2.5-.8-.6-.1-1-.3-1-.5s-.6-.4-1.6-.6c-2.2-.1-4.4.1-6.6.5.1.2.9.5.9.5l-.2.5 1.6.5c-.7.2-.3.3-.2.6-5.5.4-5.6.5-5.9.5-1.7-.4-1.9-.4-2.1-.6-4 0-8.7-.3-8.7-.3.1.4.4.5.9.5 2.1 0 2.6.4 2.8 1.1-1.4-.4-2.9-.5-4.4-.6-2.8.1-5.5.4-8.2 1-1.6-.3-1.9-.5-1.9-.7-1.7 0-2.7-.2-3-.6 0-.1.1-.3.6-.5.2-.5.1-.5-.1-.6l-3.4-.9c-3.9-.4-4.6-.6-5.1-.6-3.2.5-2.9.5-2.7.5 1.7.3 1.3.4 1 .5-1.5.3-1.4.4-1.1.6.2.1.4.3.5.5-10.1-.1-10.7 0-11 0-4.2.6-4 .8-4 .9-.8.3-1.8 0-2.3-.7-9.5.2-9.7.3-10.1.3-1.2.1-2.2-.6-2.7-1.6l-32.9-5.9c.1.3.3.6.6.7l6.4 2.2c0 .3-.1.6-.1.9-2.3-.7-2.5-1-2.5-1.3-.4-.1-1 .6-1 .6.2.6 0 .8-.5.8-2.9 0-5.9-.2-8.8-.6-3.8-.2-7.6-.6-7.6-.6-3.9-.1-6.6-.2-10.1-.3-3.5-.1-10.2-.9-10.2-.9-6.1-.3-6.7-.4-7.4-.4 0 .6.4.8.8.9 2.6.3 3 .4 3.4.5.8.8-1.5 1-6.1 1-1.8.3-1.5.4-1 .6l.1.6c-2.3 0-3.6.2-4.2.6 2.9 0 4.4.3 4.6.9-1.2.2-.3.4 1.3.7.3.1 5.7.9 5.7.9-.2 0-2 .6-2 .6.1.2.3.4.9.6-1.6.2-5.7.5-5.7.5-.1-.5-2.4-.8-6.8-.8-3.6-.1-5.5-.2-8.4-.3-2.1 0-4.2-.2-6.3-.5-7.4-.2-8.5-.2-9.4-.3s-1.3-.3-1.5-.7c4.3-.6 4.2-.8 4.2-.9.8-.2 1.1.1 1.2.6 5.4-.3 4.5-.6 2.8-.6-.9.1-1.9-.1-2.7-.6-1.3-.1-2.6-.3-3.8-.8-.8-.2-1.7-.6-2.4-1 .4-.4-.4-.4-1.6-.6-1 .3-.6.4-.6.6-6.8-.3-7.2-.5-7.5-.7-.3-.1-.4-.4-.5-.7 1.7.1 3.4-.1 5-.5-.8-.4-1.7-.6-2.6-.8-.6-.1-1-.3-1-.5s-.6-.4-1.6-.6c-2.3-.1-4.6.1-6.8.5.1.2.9.6.9.6l-.2.6 1.6.6c-.7.2-.3.3-.2.6-5.7.4-5.8.5-6.1.6-1.8-.4-2-.5-2.2-.7-4.2 0-9-.3-9-.3.1.4.4.6.9.6 2.2 0 2.7.4 2.8 1.1-1.5-.4-3-.6-4.5-.6-6.8.5-7.3.8-8.5 1.1-1.6-.3-2-.5-2-.7-1.7 0-2.7-.2-3-.6 0-.1.1-.3.6-.6.2-.5.1-.6-.2-.6L97.8 3c-4-.5-4.8-.6-5.2-.6-3.3.5-3 .5-2.8.5 1.8.4 1.4.4 1 .5-1.5.3-1.4.4-1.1.6.3.1.5.3.5.6-10.5-.1-11.1 0-11.3 0-4.3.6-4.2.8-4.1.9-.9.3-1.9 0-2.4-.8-9.8.2-10 .3-10.5.3-8.7.3-8.9.3-9.4.3-2.5-.2-5-.4-7.5-.4-3.3-.5-3.6-.6-3.8-.6-1.4.3-2.8.5-4.2.6-11.7.1-14.1 0-15.4-.4L20 2.8c-3.6-.4-3.8-.4-3.8-.6-2.7.2-3-.2-3.2-.9-1.5-.5-3-.8-4.6-.9L7.2 1c-.8.5-1.2.9-1.2 1l.1.6c-1.3 0-2.5.3-3.8.7-.7.3-1.5.5-2.3.5v155l1.9-.8c1.9-.6 2.2-.8 2.2-.9.4-.4 1.6-.6 3.4-.6 1.7-.5 2.2-.6 2.2-.8 1.2.3 1.8.6 1.7 1 8.7.2 10.3.1 11.9-.3-.1.7-.7 1.2-1.4 1.2-2 0-2.3.2-2.4.6 2.3.1 4.5-.1 6.7-.7.3.2.6.5.9.8l2.4-.6c7.9.5 7.5.6 6.7.6-1 .3-.2.8-.2.8l.2.6c-.7.2-.9.3-.9.6.8.2 1.7.4 2.5.6 5.6-.1 6.3-.6 6.3-.6.1-.3.4-.4 1.1-.6 3.6-.5 4.3-.6 4.5-.6.1-.3-3.3-.6-3.3-.6-3.7-.5-3.5-.7-3.2-.9 1.5-.4 1.8-.6 2.1-.7 4 .5 3.6.7 3.6.8 5.1-.6 4.9-.8 4.4-.8.9-.4 1.3-.6 1.4-.8 1.7-.5 3.4-.8 5.2-.9.7-.4.8-.6.7-.7l-1.8.3c-.3-.3-.1-.5.2-.8-4.8-.8-4.2-1-3.3-1.1 6.6-.3 6.8-.3 6.8-.4 4.3 0 6.5-.2 9.6-.2 13.4-.2 15.8-.5 15.9-1l3.6.6c1.7.2 1.4.3 1.4.6.7.3 1.4.5 2.1.6l-2.1.8c-5.5.6-6.4.7-6.7.7 1.3.9-.3 1.1-3.3 1.1 1.3.5 2.6.7 4 .6l.2.6c-.4.1-.7.3-.9.6 6.7 0 9.1.2 9 .6-.1.4-.3.4-.7.5-1.2 0-2.4.2-3.5.5-.4.1-.9.3-1.3.5l-1.1.5c5.8-.2 7.7-.2 9.2-.3l2.4-.6c12-.3 14.7-.4 16.5-.5 3.4 0 6.9-.2 10.3-.5 7.5-.4 8.6-.5 9.1-.5s.6.8.6.8c.8.5.6.7.5 1 .6-.6.8-1 1.1-1.3 1.3-.4 1.8-.4 2.1-.6l-.6.8c.6.2-6.1 2.7-6.1 2.7-.3.1-.5.4-.6.8l34.5-6v-4.1c7.1-.1 8 .1 8.6.5 5.2-.9 5.9-1.3 6.6-1.3.2.5.1.7-.3.9 1 .3 2.1.5 3.2.6 9.4-.3 10.3-.4 10.9-.5 2 .6 1.9.8 1.6.9-.2.1-.4.3-.5.6 2.8.4 2.4.6 1.7.6-2 .4-1.8.6-1.2.6 6.3-.4 7.3-.5 8.2-.5l1.4-1.1c1.9-.6 1.7-.8 1.7-.9.3-.4 1.4-.6 3.1-.6 1.7-.5 2-.6 2-.7 1.2.3 1.7.6 1.6.9 8.4.2 10 .1 11.5-.3-.1.7-.7 1.2-1.4 1.1-2 0-2.3.2-2.4.6 2.2.1 4.4-.1 6.5-.7.3.2.6.5.9.8l2.4-.6c7.6.5 7.2.6 6.5.6-.9.3-.2.8-.2.8l.2.6c-.7.2-.8.3-.9.6l2.4.6c5.5-.1 6.1-.5 6.1-.5.1-.3.4-.4 1-.6 3.5-.5 4.1-.6 4.4-.6.1-.3-3.2-.6-3.2-.6-3.6-.4-3.4-.7-3.1-.9 1.4-.4 1.7-.5 2-.6 3.9.5 3.5.6 3.5.8 5-.6 4.8-.7 4.3-.7.9-.4 1.3-.6 1.3-.8 1.6-.5 3.3-.8 5.1-.9.9-.5.8-.6.6-.8 3.2.2 25.6-.1 25.6-.1 0 .3 0 .7.2.9-3.3.8-2 1 0 1l.2.6c-.3.1-.7.3-.9.6 6.5 0 8.8.2 8.7.6s-.3.4-.7.5c-3.9.6-4.3.7-4.7.9 3.4.1 6.9 0 10.3-.4 11.6-.3 14.3-.4 16-.5 3.3 0 6.6-.1 9.9-.5l9.4 1.7-2.9 1c-.3.1-.5.4-.6.8l6.8-1.1 3.9.7c-.1-.3-.3-.6-.5-.7l9.2-2.1c8.2.3 10.8.4 14.2.5s9.9.8 9.9.8c5.9.3 6.5.4 7.2.4 0-.6-.4-.8-.8-.9-2.5-.3-2.9-.4-3.3-.4-.7-.8 1.5-1 5.9-1 1.7-.3 1.4-.4.9-.5l-.1-.5c2.3 0 3.5-.2 4-.5-1.6 0 21.2-.4 21.2-.4 1.4.1 2.7.4 4 .9.8.2 1.6.5 2.4.9-.4.4.3.4 1.6.6.9-.3.6-.4.6-.5 6.6.3 6.9.5 7.2.6.2.1.4.4.5.6-1.6-.1-3.3.1-4.8.5.8.3 1.6.6 2.5.7.6.1 1 .3 1 .5s.6.4 1.6.6c2.2.1 4.4-.1 6.6-.5-.1-.2-.9-.5-.9-.5l.2-.5-1.6-.5c.7-.2.3-.3.2-.6 5.5-.4 5.6-.5 5.9-.5 1.7.4 1.9.4 2.1.6 4 0 8.7.3 8.7.3-.1-.4-.4-.5-.9-.5-2.1 0-2.6-.4-2.8-1.1 1.4.4 2.9.5 4.4.6 2.8-.1 5.5-.4 8.2-1 1.6.3 1.9.5 1.9.7 1.7 0 2.7.2 3 .6 0 .1-.1.3-.6.5-.2.5-.1.5.1.6l3.4.9c3.9.4 4.6.6 5.1.6 3.2-.5 2.9-.5 2.7-.5-1.7-.4-1.3-.4-1-.5 1.5-.3 1.4-.4 1.1-.6-.2-.1-.4-.3-.5-.5 10.1.1 10.7 0 11 0 4.2-.6 4-.8 4-.9.8-.3 1.8 0 2.3.7 9.5-.2 9.7-.3 10.2-.3 1.1 0 2.1.6 2.5 1.7l33 5.9c-.1-.3-.3-.6-.6-.7l-6.4-2.2c0-.3.1-.6.1-.9 2.3.7 2.5 1 2.5 1.3.4.1 1-.6 1-.6-.2-.6 0-.8.5-.8 2.9 0 5.8.2 8.7.6 3.8.2 7.6.6 7.6.6 3.9.1 6.6.2 10.1.3s10.2.9 10.2.9c6.1.3 6.7.4 7.4.4 0-.6-.4-.8-.8-.9-2.6-.3-3-.4-3.4-.5-.8-.8 1.5-1 6.1-1 1.8-.3 1.5-.4.9-.6l-.1-.6c2.3 0 3.6-.2 4.2-.6-2.9 0-4.4-.3-4.6-.9 1.2-.2.3-.4-1.3-.7-.3-.1-5.7-.9-5.7-.9.2 0 2-.6 2-.6 0-.2-.3-.4-.9-.6 1.6-.2 5.7-.5 5.7-.5.1.5 2.4.8 6.8.8 3.6.1 5.5.2 8.4.3 2.1 0 4.2.2 6.3.5 7.4.2 8.5.2 9.4.3.9.1 1.4.3 1.5.7-4.3.6-4.2.8-4.2.9-.8.2-1.1-.1-1.2-.6-5.4.3-4.5.6-2.8.6.9-.1 1.9.1 2.7.6 1.3.1 2.6.3 3.8.8.9.2 1.7.6 2.5 1-.4.4.4.4 1.6.6 1-.3.6-.4.6-.6 6.8.4 7.2.5 7.5.7.3.1.4.4.5.6-1.7-.1-3.4.1-5 .5.8.4 1.7.6 2.6.8.6.1 1 .3 1 .6s.6.4 1.6.6c2.3.1 4.6-.1 6.8-.5-.1-.2-.9-.6-.9-.6l.2-.6-1.6-.6c.7-.2.3-.3.2-.6 5.7-.4 5.8-.5 6.1-.6 1.8.4 2 .5 2.2.7 4.2 0 9 .3 9 .3-.1-.4-.4-.6-.9-.6-2.2 0-2.7-.4-2.8-1.1 1.5.4 3 .6 4.5.6 6.8-.5 7.3-.8 8.5-1.1 1.6.3 2 .5 2 .7 1.7 0 2.7.2 3 .6 0 .1-.1.3-.6.6-.2.5-.1.6.2.6l3.5.9c4 .5 4.8.6 5.2.6 3.3-.5 3-.5 2.8-.6-1.8-.4-1.4-.4-1-.6 1.5-.3 1.4-.4 1.1-.6-.3-.1-.4-.3-.5-.6 10.5.1 11 0 11.3 0 4.3-.6 4.2-.8 4.1-.9.9-.3 1.9 0 2.4.8 9.8-.2 10-.3 10.5-.3 8.7-.3 8.9-.3 9.4-.3 2.5.4 4.9.6 7.4.6 3.3.5 3.6.6 3.8.6 1.4-.3 2.8-.5 4.2-.6 11.8-.1 14.2 0 15.4.4l1.5 1.7c3.6.4 3.8.4 3.8.6 2.7-.2 3 .2 3.2.9 1.5.5 3 .8 4.6.9l1.3-.7c.9-.5 1.3-.8 1.2-.9l-.1-.6c1-.1 1.9-.3 2.7-.7.5-.3 1.1-.5 1.7-.6 5.7-.5 6-.7 6.7-.7 2.5-.3 2.2-.5 1.6-.7-.5 0-.9-.6-.9-.6 3 0 4.7-.2 5.3-.6-.2 0-.9-.6-.9-.6-2-.2-2.3-.3-2.3-.6.2-.3.2-.6.1-.9-.1-.3 0-.6.1-.9.9-.2 1.8-.5 2.7-.9 0-.1 31.4 4.3 31.4 4.3-.1-.3-.3-.6-.5-.7l-6.2-2.2c0-.3.1-.6.1-.9 2.2.7 2.4 1 2.4 1.3.4.1.9-.5.9-.5-.2-.6 0-.7.5-.7 2.8 0 5.6.2 8.4.6 3.7.2 7.4.6 7.4.6 3.8.1 6.4.2 9.8.3 3.4.1 9.9.8 9.9.8 5.9.3 6.5.4 7.2.4 0-.6-.4-.8-.8-.9-2.5-.3-2.9-.4-3.3-.4-.7-.8 1.5-1 5.9-1 1.7-.3 1.4-.4.9-.5l-.1-.5c2.3 0 3.5-.2 4-.5-1.6 0 21.2-.4 21.2-.4 1.4.1 2.7.4 4 .9.8.2 1.6.5 2.4.9-.4.4.3.4 1.6.6.9-.3.6-.4.6-.5 6.6.3 6.9.5 7.2.6.3.1.4.4.5.6-1.6-.1-3.3.1-4.8.5.8.3 1.6.6 2.5.7.6.1 1 .3 1 .5s.6.4 1.6.6c2.2.1 4.4-.1 6.6-.5-.1-.2-.9-.5-.9-.5l.2-.5-1.6-.5c.7-.2.3-.3.2-.6 5.5-.4 5.6-.5 5.9-.5 1.7.4 1.9.4 2.1.6 4 0 8.7.3 8.7.3-.1-.4-.4-.5-.9-.5-2.1 0-2.6-.4-2.8-1.1 1.4.4 2.9.5 4.4.6 2.8-.1 5.5-.4 8.2-1 1.6.3 1.9.5 1.9.7 1.7 0 2.7.2 3 .6 0 .1-.1.3-.6.5-.2.5-.1.5.1.6l3.4.9c3.9.4 4.6.6 5.1.6 3.2-.5 2.9-.5 2.7-.5-1.7-.4-1.3-.4-1-.5 1.5-.3 1.4-.4 1.1-.6-.2-.1-.4-.3-.5-.5 10.1.1 10.7 0 11 0 4.2-.6 4-.8 4-.9.8-.3 1.8 0 2.3.7 9.5-.2 9.7-.3 10.1-.3 1.1 0 2.1.6 2.5 1.7l33 5.9c-.1-.3-.3-.6-.6-.7l-6.4-2.2c0-.3.1-.6.1-.9 2.3.7 2.5 1 2.5 1.3.4.1 1-.6 1-.6-.2-.6 0-.8.5-.8 2.9 0 5.8.2 8.7.6 3.8.2 7.6.6 7.6.6 3.9.1 6.6.2 10.1.3 3.5.1 10.2.9 10.2.9 6.1.3 6.7.4 7.4.4 0-.6-.4-.8-.8-.9-2.6-.3-3-.4-3.4-.5-.8-.8 1.5-1 6.1-1 1.8-.3 1.5-.4 1-.6l-.1-.6c2.3 0 3.6-.2 4.2-.6-2.9 0-4.4-.3-4.6-.9 1.2-.2.3-.4-1.3-.7-.3-.1-5.7-.9-5.7-.9.2 0 2-.6 2-.6-.1-.2-.3-.4-.9-.6 1.6-.2 5.7-.5 5.7-.5.1.5 2.4.8 6.8.8 3.6.1 5.5.2 8.4.3 2.1 0 4.2.2 6.3.5 7.4.2 8.5.2 9.4.3.9.1 1.3.3 1.5.7-4.3.6-4.2.8-4.2.9-.8.2-1.1-.1-1.2-.6-5.4.3-4.5.6-2.8.6.9-.1 1.9.1 2.7.6 1.3.1 2.6.3 3.8.8.8.2 1.7.5 2.4.9-.4.4.4.4 1.6.6 1-.3.6-.4.6-.6 6.8.4 7.2.5 7.5.7.3.1.4.4.5.6-1.7-.1-3.4.1-5 .5.8.4 1.7.6 2.6.8.6.1 1 .3 1 .6s.6.4 1.6.6c2.4.1 4.8-.1 7.1-.5-.1-.2-.9-.6-.9-.6l.2-.6-1.6-.6c.7-.2.3-.3.2-.6 5.7-.4 5.8-.5 6.1-.6 1.8.4 2 .5 2.2.7 4.2 0 9 .3 9 .3-.1-.4-.4-.6-.9-.6-2.2 0-2.7-.4-2.8-1.1 1.5.4 3 .6 4.5.6 6.8-.5 7.3-.8 8.5-1.1 1.6.3 2 .5 2 .7 1.7 0 2.7.2 3 .6 0 .1-.1.3-.6.6-.2.5-.1.6.2.6l3.5.9c4 .5 4.8.6 5.2.6 3.3-.5 3-.5 2.8-.6-1.8-.4-1.4-.4-1-.6 1.5-.3 1.4-.4 1.1-.6-.3-.1-.5-.3-.5-.6 10.5.1 11.1 0 11.3 0 4.3-.6 4.2-.8 4.1-.9.9-.3 1.9 0 2.4.8 9.8-.2 10-.3 10.5-.3 8.7-.3 8.9-.3 9.4-.3 2.5.4 4.9.6 7.4.6 3.3.5 3.6.6 3.8.6 1.4-.3 2.8-.5 4.2-.6 11.8-.1 14.2 0 15.4.4l1.5 1.7c3.6.4 3.8.4 3.8.6 2.7-.2 3 .2 3.2.9 1.5.5 3 .8 4.6.9l1.3-.7c.9-.5 1.3-.8 1.2-.9l-.1-.6c1.4-.2.4-.4 1.1-.7.5-.3-.4-.4-.4-.5V2.8l2.2.8z"/><path d="M60.4 135.2l.1.1.5-.1h-.6zM65.5 134.6c-2.2.3-3.6.4-4.5.6 3.5.2 4.4-.1 4.5-.6z"/></g></g></g></g></svg>